<?xml version="1.0" encoding="utf-8"?>
<!-- Generator: Adobe Illustrator 23.0.3, SVG Export Plug-In . SVG Version: 6.00 Build 0)  -->
<svg version="1.1" xmlns="http://www.w3.org/2000/svg" xmlns:xlink="http://www.w3.org/1999/xlink" x="0px" y="0px"
	 viewBox="0 0 1838.3 588.26" style="enable-background:new 0 0 1838.3 588.26;" xml:space="preserve">
<style type="text/css">
	.st0{display:none;}
	.st1{display:inline;}
	.st2{fill:#8E7303;}
	.st3{fill:#FFC200;}
	.st4{font-family:'Arial-BoldMT';}
	.st5{font-size:162px;}
	.st6{letter-spacing:41;}
	.st7{fill:none;}
</style>
<g id="Вертикальный" class="st0">
	<g id="Слой_7" class="st1">
		<g>
			<path d="M555.18,383.85L435.71,642.84h61.33l58.13-126.11l58.13,126.11h61.33L555.18,383.85z M555.49,464.53L481.47,616.6h-7.79
				l81.87-168.12l79.66,168.12h-7.65L555.49,464.53z"/>
			<g>
				<path d="M707.85,624.14h-4.3V385.95h51.94v127.7l145.89-134.31h4.3v238.19h-51.94V492.81L707.85,624.14z M734.32,650.61h-1.98
					l-21.83-22.16l2.32-2.32l23.16,22.83L734.32,650.61z M739.61,645.64l-22.83-23.16l2.65-2.32l22.83,23.16L739.61,645.64z
					 M746.23,639.69l-23.16-22.83l2.65-2.32l22.83,22.83L746.23,639.69z M752.51,633.73l-22.83-22.83l2.65-2.32l22.83,22.83
					L752.51,633.73z M758.8,628.11l-22.83-22.83l2.65-2.32l22.83,22.83L758.8,628.11z M765.08,622.49l-22.83-22.83l2.65-2.32
					l22.83,22.5L765.08,622.49z M771.7,616.53l-22.83-22.83l2.65-2.32l22.5,22.83L771.7,616.53z M777.98,610.58l-22.83-22.5
					l2.65-2.32l22.83,22.5L777.98,610.58z M780.3,418.37l-19.52-19.52v-4.96l19.52,19.52V418.37z M780.3,430.61l-19.52-19.52v-4.96
					l19.52,19.52V430.61z M780.3,442.85l-19.52-19.52v-5.29l19.52,19.52V442.85z M780.3,454.76l-19.52-19.52v-4.96l19.52,19.52
					V454.76z M780.3,467l-19.52-19.52v-4.96l19.52,19.52V467z M780.3,479.24l-19.52-19.52v-4.96l19.52,19.52V479.24z M776,487.51
					l-15.22-15.55V467l17.86,18.19L776,487.51z M770.04,493.14l-9.26-9.26v-4.96l11.58,11.91L770.04,493.14z M763.43,499.09
					l-2.65-2.98v-4.96l5.29,5.62L763.43,499.09z M784.27,604.95l-22.83-22.5l2.98-2.65l22.5,22.83L784.27,604.95z M790.56,599.33
					l-22.5-22.83l2.65-2.32l22.5,22.5L790.56,599.33z M796.84,593.37l-22.5-22.5l2.65-2.32l22.5,22.5L796.84,593.37z M803.46,587.42
					l-22.5-22.5l2.65-2.32l22.5,22.5L803.46,587.42z M809.74,581.8l-22.5-22.5l2.65-2.32l22.5,22.5L809.74,581.8z M816.03,576.17
					l-22.5-22.5l2.65-2.32l22.5,22.16L816.03,576.17z M822.31,570.22l-22.16-22.5l2.65-2.32l22.16,22.5L822.31,570.22z
					 M828.93,564.26l-22.5-22.16l2.65-2.65l22.5,22.5L828.93,564.26z M835.22,558.64l-22.16-22.5l2.32-2.32l22.5,22.16
					L835.22,558.64z M841.5,552.68l-22.17-22.16l2.32-2.32l22.5,22.17L841.5,552.68z M847.79,547.06l-22.17-22.5l2.65-2.32
					l20.18,20.18v4.3L847.79,547.06z M848.45,535.15l-16.54-16.21l2.65-2.32l13.89,13.56V535.15z M848.45,522.91l-9.92-9.92
					l2.65-2.32l7.28,7.28V522.91z M848.45,511l-3.64-3.64l2.65-2.32l0.99,0.66V511z M888.81,643.99h-4.96l-21.5-21.5h4.96
					L888.81,643.99z M901.05,643.99h-4.96l-21.5-21.5h4.96L901.05,643.99z M913.29,643.99h-4.96l-21.5-21.5h4.96L913.29,643.99z
					 M925.53,643.99h-4.96l-21.5-21.5h4.96L925.53,643.99z M932.48,412.42l-21.5-21.5v-4.96l21.5,21.5V412.42z M932.48,424.66
					l-21.5-21.5v-4.96l21.5,21.5V424.66z M932.48,436.9l-21.5-21.5v-5.29l21.5,21.5V436.9z M932.48,448.81l-21.5-21.5v-4.96
					l21.5,21.5V448.81z M932.48,461.05l-21.5-21.5v-4.96l21.5,21.5V461.05z M932.48,473.29l-21.5-21.5v-4.96l21.5,21.5V473.29z
					 M932.48,485.53l-21.5-21.5v-4.96l21.5,21.5V485.53z M932.48,497.44l-21.5-21.5v-4.96l21.5,21.5V497.44z M932.48,509.68
					l-21.5-21.5v-4.96l21.5,21.5V509.68z M932.48,521.92l-21.5-21.5v-4.96l21.5,21.5V521.92z M932.48,534.16l-21.5-21.5v-4.96
					l21.5,21.5V534.16z M932.48,546.07l-21.5-21.5v-4.96l21.5,21.5V546.07z M932.48,558.31l-21.5-21.5v-4.96l21.5,21.5V558.31z
					 M932.48,570.55l-21.5-21.5v-4.96l21.5,21.5V570.55z M932.48,582.79l-21.5-21.5v-4.96l21.5,21.5V582.79z M932.48,595.03
					l-21.5-21.5v-5.29l21.5,21.5V595.03z M932.48,606.94l-21.5-21.5v-4.96l21.5,21.5V606.94z M932.48,619.18l-21.5-21.5v-4.96
					l21.5,21.5V619.18z M932.48,631.42l-21.5-21.5v-4.96l21.5,21.5V631.42z M932.48,643.66l-21.5-21.5v-4.96l21.5,21.5V643.66z"/>
			</g>
			<g>
				<path d="M992.02,386.58h5.86v256.26h-5.86V386.58z M1005.2,386.58h5.86v256.26h-5.86V386.58z M1018.37,386.58h5.86v256.26h-5.86
					V386.58z M1031.55,386.58h5.86v256.26h-5.86V386.58z M1044.73,386.58h5.86V500.8l91.52-114.22h7.32l-98.84,123.01v2.93
					l103.24,130.33h-7.32l-95.92-121.17v121.17h-5.86V386.58z M1057.55,511.05l100.67-124.47h7.69l-100.67,124.47l105.43,131.79
					h-7.69L1057.55,511.05z M1073.29,511.05l100.31-124.47h7.69l-100.31,124.47l105.43,131.79h-7.69L1073.29,511.05z M1088.3,511.05
					l101.41-124.47h7.69l-101.41,124.47l106.9,131.79h-7.69L1088.3,511.05z M1104.41,511.05l101.41-124.47h7.32l-101.04,124.47
					l106.9,131.79h-7.32L1104.41,511.05z"/>
			</g>
			<g>
				<path d="M1354.27,386.35c33.16,0,63.84,11.29,87.47,34.92l-21.16,29.63c-19.4-16.58-43.03-26.45-67.37-26.45
					c-45.15,0-79.71,33.86-83.95,81.83h-42.68C1231.17,436.09,1285.14,386.35,1354.27,386.35z M1226.59,524.97h42.68
					c3.88,48.32,39.5,81.83,84.3,81.83c31.04,0,55.38-16.23,71.95-31.74l20.81,30.69c-23.98,23.63-54.32,39.15-92.41,39.15
					C1284.78,644.9,1230.82,594.81,1226.59,524.97z"/>
			</g>
			<g class="st0">
				<path class="st1" d="M463.39,707.67v5.16h-19.15v42.48h-6.15v-47.64H463.39z"/>
				<path class="st1" d="M496.96,708.24c2.97-0.49,6.86-0.92,11.8-0.92c6.08,0,10.53,1.41,13.36,3.96c2.62,2.26,4.17,5.73,4.17,9.97
					c0,4.31-1.27,7.7-3.68,10.18c-3.25,3.46-8.55,5.23-14.56,5.23c-1.84,0-3.53-0.07-4.95-0.42v19.08h-6.15V708.24z M503.11,731.21
					c1.34,0.35,3.04,0.5,5.09,0.5c7.42,0,11.94-3.6,11.94-10.18c0-6.29-4.45-9.33-11.24-9.33c-2.69,0-4.74,0.21-5.8,0.5V731.21z"/>
				<path class="st1" d="M563.75,707.67l9.47,20.29c1.2,2.83,2.33,5.58,3.46,8.41h0.14c0.85-2.47,1.77-5.23,2.97-8.62l7.42-20.07
					h6.5l-9.97,24.46c-2.62,6.36-5.58,13.64-8.91,18.09c-3.11,3.89-6.57,5.87-10.81,5.87c-1.56,0-2.69-0.14-3.46-0.42l0.64-5.02
					c0.49,0.14,1.2,0.21,2.26,0.21c4.95-0.07,7.85-4.81,9.33-8.2c0.49-1.06,0.35-1.77-0.21-2.9l-15.83-32.09H563.75z"/>
				<path class="st1" d="M661.5,707.67v47.64h-6.15v-42.48h-22.12v42.48h-6.15v-47.64H661.5z"/>
				<path class="st1" d="M734.94,707.67v47.64h-6.15v-42.48h-22.12v42.48h-6.15v-47.64H734.94z"/>
				<path class="st1" d="M781.66,740.33l-4.95,14.98h-6.36l16.19-47.64h7.42l16.26,47.64h-6.57l-5.09-14.98H781.66z M797.28,735.52
					l-4.66-13.71c-1.06-3.11-1.77-5.94-2.47-8.69H790c-0.71,2.83-1.48,5.73-2.4,8.62l-4.67,13.78H797.28z"/>
				<path class="st1" d="M894.81,707.67v21.13h1.91l16.33-21.13h7.42l-18.02,21.84c7.85,1.06,10.88,5.87,13.36,12.3
					c1.77,4.88,3.11,9.26,5.23,13.5h-6.64c-1.7-3.25-3.04-7.49-4.31-11.24c-2.19-6.29-5.23-10.6-13.29-10.6h-1.98v21.84h-6.08
					v-47.64H894.81z"/>
				<path class="st1" d="M994.68,731c0,16.4-9.97,25.09-22.12,25.09c-12.58,0-21.42-9.75-21.42-24.17c0-15.13,9.4-25.02,22.12-25.02
					C986.27,706.89,994.68,716.86,994.68,731z M957.72,731.77c0,10.18,5.51,19.3,15.2,19.3c9.75,0,15.27-8.98,15.27-19.79
					c0-9.47-4.95-19.37-15.2-19.37C962.81,711.91,957.72,721.31,957.72,731.77z"/>
				<path class="st1" d="M1070.87,734.39c-0.35-6.64-0.78-14.63-0.71-20.57h-0.21c-1.63,5.58-3.61,11.52-6.01,18.09l-8.41,23.11
					h-4.66l-7.7-22.69c-2.26-6.71-4.17-12.86-5.51-18.52h-0.14c-0.14,5.94-0.49,13.92-0.92,21.06l-1.27,20.43h-5.87l3.32-47.64h7.85
					l8.13,23.04c1.98,5.87,3.6,11.1,4.81,16.04h0.21c1.2-4.81,2.9-10.04,5.02-16.04l8.48-23.04h7.85l2.97,47.64h-6.01
					L1070.87,734.39z"/>
				<path class="st1" d="M1150.25,707.67v47.64h-6.15v-42.48h-22.12v42.48h-6.15v-47.64H1150.25z"/>
				<path class="st1" d="M1196.97,740.33l-4.95,14.98h-6.36l16.19-47.64h7.42l16.26,47.64h-6.57l-5.09-14.98H1196.97z
					 M1212.59,735.52l-4.66-13.71c-1.06-3.11-1.77-5.94-2.47-8.69h-0.14c-0.71,2.83-1.48,5.73-2.4,8.62l-4.67,13.78H1212.59z"/>
				<path class="st1" d="M1266.94,707.67v19.93h23.04v-19.93h6.22v47.64h-6.22v-22.33h-23.04v22.33h-6.15v-47.64H1266.94z"/>
				<path class="st1" d="M1340.94,707.67v20.07c0,7.56-0.14,13.78-0.57,20.14l0.14,0.07c2.4-4.95,5.37-10.11,8.83-15.76l15.41-24.53
					h6.15v47.64h-5.79v-20.28c0-7.7,0.07-13.36,0.56-19.37l-0.21-0.07c-2.33,5.23-5.58,10.74-8.83,16.04l-14.91,23.68h-6.57v-47.64
					H1340.94z"/>
				<path class="st1" d="M1415.72,707.67v20.07c0,7.56-0.14,13.78-0.57,20.14l0.14,0.07c2.4-4.95,5.37-10.11,8.83-15.76l15.41-24.53
					h6.15v47.64h-5.8v-20.28c0-7.7,0.07-13.36,0.57-19.37l-0.21-0.07c-2.33,5.23-5.58,10.74-8.83,16.04l-14.91,23.68h-6.57v-47.64
					H1415.72z M1423.49,697.71c0.28,2.19,0.99,4.38,4.31,4.38c3.25,0,4.03-2.05,4.31-4.38h4.74c-0.35,4.66-3.18,7.56-9.19,7.56
					c-5.8,0-8.55-2.9-8.91-7.56H1423.49z"/>
			</g>
			<g>
				<polygon class="st2" points="1216.28,45.9 1172.52,121.36 1090.08,119.81 1132.61,45.97 				"/>
				<polygon class="st2" points="784.75,157.67 739.67,79.67 783.49,11.43 826.35,85.07 				"/>
				<polygon class="st2" points="904.62,-273.3 994.71,-273.46 1032,-201.44 946.79,-201.03 				"/>
				<polygon class="st3" points="656.7,157.51 904.7,-273.44 946.78,-201.01 740.53,157.39 				"/>
				<polygon class="st3" points="1281.8,157.66 784.59,157.67 826.38,85.07 1239.89,85.06 				"/>
				<polygon class="st3" points="968.78,-385.15 1216.36,46.04 1132.59,45.95 926.69,-312.65 				"/>
				<polygon class="st3" points="970.56,-14.99 892.66,21.07 970.52,-97.35 1048.46,21.02 				"/>
			</g>
		</g>
	</g>
	<g id="Слой_6" class="st1">
		<text transform="matrix(1 0 0 1 425.5009 836.83)" class="st0 st4 st5 st6">КЛИНИНГ</text>
		<g>
			<path d="M437.68,720.87h23.41v49.36c5.22-0.53,8.75-1.87,10.6-4.03c1.85-2.16,4.69-8.17,8.54-18.04
				c4.85-12.55,9.73-20.35,14.63-23.41c4.85-3.06,12.68-4.59,23.49-4.59c0.53,0,1.66-0.03,3.4-0.08v17.32l-3.32-0.08
				c-4.8,0-8.31,0.59-10.52,1.78s-4.01,2.99-5.38,5.42c-1.37,2.43-3.4,7.41-6.09,14.95c-1.42,4.01-2.97,7.36-4.63,10.05
				s-4.6,5.22-8.82,7.59c5.22,1.48,9.53,4.46,12.93,8.94c3.4,4.48,7.13,10.81,11.19,18.98l15.82,31.8h-27.53l-13.84-29.98
				c-0.21-0.42-0.66-1.24-1.34-2.45c-0.26-0.42-1.24-2.24-2.93-5.46c-3.01-5.7-5.47-9.25-7.4-10.68c-1.93-1.42-4.86-2.16-8.82-2.21
				v50.78h-23.41V720.87z"/>
			<path d="M586.1,720.87h81.24v115.96h-23.41v-96.35h-34.88V790c0,14.19-0.47,24.09-1.42,29.7s-3.26,9.99-6.92,13.13
				c-3.67,3.14-9.4,4.71-17.2,4.71c-2.74,0-7.73-0.26-14.95-0.79v-18.11l5.22,0.08c4.9,0,8.2-0.66,9.89-1.98
				c1.69-1.32,2.53-4.56,2.53-9.73l-0.08-19.93V720.87z"/>
			<path d="M733.42,720.87h21.91v77.2l46.99-77.2h23.33v115.96h-21.91v-75.7l-46.91,75.7h-23.41V720.87z"/>
			<path d="M891.25,836.83V720.87h23.41v45.64h45.88v-45.64h23.41v115.96h-23.41v-50.7h-45.88v50.7H891.25z"/>
			<path d="M1050.11,720.87h21.91v77.2l46.99-77.2h23.33v115.96h-21.91v-75.7l-46.91,75.7h-23.41V720.87z"/>
			<path d="M1207.95,836.83V720.87h23.41v45.64h45.88v-45.64h23.41v115.96h-23.41v-50.7h-45.88v50.7H1207.95z"/>
			<path d="M1367.68,720.87h78.55v19.46h-55.13v96.5h-23.41V720.87z"/>
		</g>
	</g>
</g>
<g id="Горизонтальный__x28_первый_вариант_x29_" class="st0">
	<g class="st1">
		<path d="M925.95,107.44L806.49,366.43h61.33l58.13-126.11l58.13,126.11h61.33L925.95,107.44z M926.26,188.12l-74.02,152.07h-7.79
			l81.87-168.12l79.66,168.12h-7.65L926.26,188.12z"/>
		<g>
			<path d="M1078.63,347.73h-4.3V109.54h51.94v127.7l145.89-134.31h4.3v238.19h-51.94V216.4L1078.63,347.73z M1105.09,374.2h-1.98
				l-21.83-22.16l2.32-2.32l23.16,22.83L1105.09,374.2z M1110.39,369.24l-22.83-23.16l2.65-2.32l22.83,23.16L1110.39,369.24z
				 M1117,363.28l-23.16-22.83l2.65-2.32l22.83,22.83L1117,363.28z M1123.29,357.33l-22.83-22.83l2.65-2.32l22.83,22.83
				L1123.29,357.33z M1129.57,351.7l-22.83-22.83l2.65-2.32l22.83,22.83L1129.57,351.7z M1135.86,346.08l-22.83-22.83l2.65-2.32
				l22.83,22.5L1135.86,346.08z M1142.47,340.12l-22.83-22.83l2.65-2.32l22.5,22.83L1142.47,340.12z M1148.76,334.17l-22.83-22.5
				l2.65-2.32l22.83,22.5L1148.76,334.17z M1151.08,141.96l-19.52-19.52v-4.96l19.52,19.52V141.96z M1151.08,154.2l-19.52-19.52
				v-4.96l19.52,19.52V154.2z M1151.08,166.44l-19.52-19.52v-5.29l19.52,19.52V166.44z M1151.08,178.35l-19.52-19.52v-4.96
				l19.52,19.52V178.35z M1151.08,190.59l-19.52-19.52v-4.96l19.52,19.52V190.59z M1151.08,202.83l-19.52-19.52v-4.96l19.52,19.52
				V202.83z M1146.78,211.1l-15.22-15.55v-4.96l17.86,18.19L1146.78,211.1z M1140.82,216.73l-9.26-9.26v-4.96l11.58,11.91
				L1140.82,216.73z M1134.2,222.68l-2.65-2.98v-4.96l5.29,5.62L1134.2,222.68z M1155.05,328.54l-22.83-22.5l2.98-2.65l22.5,22.83
				L1155.05,328.54z M1161.33,322.92l-22.5-22.83l2.65-2.32l22.5,22.5L1161.33,322.92z M1167.62,316.97l-22.5-22.5l2.65-2.32
				l22.5,22.5L1167.62,316.97z M1174.23,311.01l-22.5-22.5l2.65-2.32l22.5,22.5L1174.23,311.01z M1180.52,305.39l-22.5-22.5
				l2.65-2.32l22.5,22.5L1180.52,305.39z M1186.8,299.76l-22.5-22.5l2.65-2.32l22.5,22.16L1186.8,299.76z M1193.09,293.81
				l-22.16-22.5l2.65-2.32l22.16,22.5L1193.09,293.81z M1199.71,287.85l-22.5-22.16l2.65-2.65l22.5,22.5L1199.71,287.85z
				 M1205.99,282.23l-22.16-22.5l2.32-2.32l22.5,22.17L1205.99,282.23z M1212.28,276.28l-22.17-22.16l2.32-2.32l22.5,22.17
				L1212.28,276.28z M1218.56,270.65l-22.17-22.5l2.65-2.32l20.18,20.18v4.3L1218.56,270.65z M1219.22,258.74l-16.54-16.21
				l2.65-2.32l13.89,13.56V258.74z M1219.22,246.5l-9.92-9.92l2.65-2.32l7.28,7.28V246.5z M1219.22,234.59l-3.64-3.64l2.65-2.32
				l0.99,0.66V234.59z M1259.58,367.58h-4.96l-21.5-21.5h4.96L1259.58,367.58z M1271.82,367.58h-4.96l-21.5-21.5h4.96
				L1271.82,367.58z M1284.06,367.58h-4.96l-21.5-21.5h4.96L1284.06,367.58z M1296.31,367.58h-4.96l-21.5-21.5h4.96L1296.31,367.58z
				 M1303.25,136.01l-21.5-21.5v-4.96l21.5,21.5V136.01z M1303.25,148.25l-21.5-21.5v-4.96l21.5,21.5V148.25z M1303.25,160.49
				l-21.5-21.5v-5.29l21.5,21.5V160.49z M1303.25,172.4l-21.5-21.5v-4.96l21.5,21.5V172.4z M1303.25,184.64l-21.5-21.5v-4.96
				l21.5,21.5V184.64z M1303.25,196.88l-21.5-21.5v-4.96l21.5,21.5V196.88z M1303.25,209.12l-21.5-21.5v-4.96l21.5,21.5V209.12z
				 M1303.25,221.03l-21.5-21.5v-4.96l21.5,21.5V221.03z M1303.25,233.27l-21.5-21.5v-4.96l21.5,21.5V233.27z M1303.25,245.51
				l-21.5-21.5v-4.96l21.5,21.5V245.51z M1303.25,257.75l-21.5-21.5v-4.96l21.5,21.5V257.75z M1303.25,269.66l-21.5-21.5v-4.96
				l21.5,21.5V269.66z M1303.25,281.9l-21.5-21.5v-4.96l21.5,21.5V281.9z M1303.25,294.14l-21.5-21.5v-4.96l21.5,21.5V294.14z
				 M1303.25,306.38l-21.5-21.5v-4.96l21.5,21.5V306.38z M1303.25,318.62l-21.5-21.5v-5.29l21.5,21.5V318.62z M1303.25,330.53
				l-21.5-21.5v-4.96l21.5,21.5V330.53z M1303.25,342.77l-21.5-21.5v-4.96l21.5,21.5V342.77z M1303.25,355.01l-21.5-21.5v-4.96
				l21.5,21.5V355.01z M1303.25,367.25l-21.5-21.5v-4.96l21.5,21.5V367.25z"/>
		</g>
		<g>
			<path d="M1362.79,110.17h5.86v256.26h-5.86V110.17z M1375.97,110.17h5.86v256.26h-5.86V110.17z M1389.15,110.17h5.86v256.26
				h-5.86V110.17z M1402.33,110.17h5.86v256.26h-5.86V110.17z M1415.51,110.17h5.86v114.22l91.52-114.22h7.32l-98.84,123.01v2.93
				l103.24,130.33h-7.32l-95.92-121.18v121.18h-5.86V110.17z M1428.32,234.64L1529,110.17h7.69l-100.67,124.47l105.43,131.79h-7.69
				L1428.32,234.64z M1444.06,234.64l100.31-124.47h7.69l-100.31,124.47l105.43,131.79h-7.69L1444.06,234.64z M1459.07,234.64
				l101.41-124.47h7.69l-101.41,124.47l106.9,131.79h-7.69L1459.07,234.64z M1475.18,234.64l101.41-124.47h7.32l-101.04,124.47
				l106.9,131.79h-7.32L1475.18,234.64z"/>
		</g>
		<g>
			<path d="M1725.04,109.95c33.16,0,63.84,11.29,87.47,34.92l-21.16,29.63c-19.4-16.58-43.03-26.45-67.37-26.45
				c-45.15,0-79.71,33.86-83.95,81.83h-42.68C1601.95,159.68,1655.91,109.95,1725.04,109.95z M1597.36,248.56h42.68
				c3.88,48.32,39.5,81.83,84.3,81.83c31.04,0,55.38-16.23,71.95-31.74l20.81,30.69c-23.98,23.63-54.32,39.15-92.41,39.15
				C1655.56,368.49,1601.59,318.4,1597.36,248.56z"/>
		</g>
		<g>
			<path d="M834.16,431.26v5.16h-19.15v42.48h-6.15v-47.64H834.16z"/>
			<path d="M867.74,431.83c2.97-0.49,6.86-0.92,11.8-0.92c6.08,0,10.53,1.41,13.36,3.96c2.62,2.26,4.17,5.73,4.17,9.97
				c0,4.31-1.27,7.7-3.68,10.18c-3.25,3.46-8.55,5.23-14.56,5.23c-1.84,0-3.53-0.07-4.95-0.42v19.08h-6.15V431.83z M873.89,454.8
				c1.34,0.35,3.04,0.5,5.09,0.5c7.42,0,11.94-3.6,11.94-10.18c0-6.29-4.45-9.33-11.24-9.33c-2.69,0-4.74,0.21-5.8,0.5V454.8z"/>
			<path d="M934.53,431.26l9.47,20.29c1.2,2.83,2.33,5.58,3.46,8.41h0.14c0.85-2.47,1.77-5.23,2.97-8.62l7.42-20.07h6.5l-9.97,24.46
				c-2.62,6.36-5.58,13.64-8.91,18.09c-3.11,3.89-6.57,5.87-10.81,5.87c-1.56,0-2.69-0.14-3.46-0.42l0.64-5.02
				c0.49,0.14,1.2,0.21,2.26,0.21c4.95-0.07,7.85-4.81,9.33-8.2c0.49-1.06,0.35-1.77-0.21-2.9l-15.83-32.09H934.53z"/>
			<path d="M1032.28,431.26v47.64h-6.15v-42.48h-22.12v42.48h-6.15v-47.64H1032.28z"/>
			<path d="M1105.71,431.26v47.64h-6.15v-42.48h-22.12v42.48h-6.15v-47.64H1105.71z"/>
			<path d="M1152.43,463.92l-4.95,14.98h-6.36l16.19-47.64h7.42l16.26,47.64h-6.57l-5.09-14.98H1152.43z M1168.05,459.11
				l-4.66-13.71c-1.06-3.11-1.77-5.94-2.47-8.69h-0.14c-0.71,2.83-1.48,5.73-2.4,8.62l-4.67,13.78H1168.05z"/>
			<path d="M1265.59,431.26v21.13h1.91l16.33-21.13h7.42l-18.02,21.84c7.85,1.06,10.88,5.87,13.36,12.3
				c1.77,4.88,3.11,9.26,5.23,13.5h-6.64c-1.7-3.25-3.04-7.49-4.31-11.24c-2.19-6.29-5.23-10.6-13.29-10.6h-1.98v21.84h-6.08v-47.64
				H1265.59z"/>
			<path d="M1365.46,454.59c0,16.4-9.97,25.09-22.12,25.09c-12.58,0-21.42-9.75-21.42-24.17c0-15.13,9.4-25.02,22.12-25.02
				C1357.05,430.49,1365.46,440.45,1365.46,454.59z M1328.49,455.36c0,10.18,5.51,19.3,15.2,19.3c9.75,0,15.27-8.98,15.27-19.79
				c0-9.47-4.95-19.37-15.2-19.37C1333.58,435.5,1328.49,444.9,1328.49,455.36z"/>
			<path d="M1441.65,457.98c-0.35-6.64-0.78-14.63-0.71-20.57h-0.21c-1.63,5.58-3.61,11.52-6.01,18.09l-8.41,23.11h-4.66l-7.7-22.69
				c-2.26-6.71-4.17-12.86-5.51-18.52h-0.14c-0.14,5.94-0.49,13.92-0.92,21.06l-1.27,20.43h-5.87l3.32-47.64h7.85l8.13,23.04
				c1.98,5.87,3.6,11.1,4.81,16.04h0.21c1.2-4.81,2.9-10.04,5.02-16.04l8.48-23.04h7.85l2.97,47.64h-6.01L1441.65,457.98z"/>
			<path d="M1521.02,431.26v47.64h-6.15v-42.48h-22.12v42.48h-6.15v-47.64H1521.02z"/>
			<path d="M1567.74,463.92l-4.95,14.98h-6.36l16.19-47.64h7.42l16.26,47.64h-6.57l-5.09-14.98H1567.74z M1583.36,459.11
				l-4.66-13.71c-1.06-3.11-1.77-5.94-2.47-8.69h-0.14c-0.71,2.83-1.48,5.73-2.4,8.62l-4.67,13.78H1583.36z"/>
			<path d="M1637.71,431.26v19.93h23.04v-19.93h6.22v47.64h-6.22v-22.33h-23.04v22.33h-6.15v-47.64H1637.71z"/>
			<path d="M1711.71,431.26v20.07c0,7.56-0.14,13.78-0.57,20.14l0.14,0.07c2.4-4.95,5.37-10.11,8.83-15.76l15.41-24.53h6.15v47.64
				h-5.79v-20.28c0-7.7,0.07-13.36,0.56-19.37l-0.21-0.07c-2.33,5.23-5.58,10.74-8.83,16.04l-14.91,23.68h-6.57v-47.64H1711.71z"/>
			<path d="M1786.49,431.26v20.07c0,7.56-0.14,13.78-0.57,20.14l0.14,0.07c2.4-4.95,5.37-10.11,8.83-15.76l15.41-24.53h6.15v47.64
				h-5.8v-20.28c0-7.7,0.07-13.36,0.57-19.37l-0.21-0.07c-2.33,5.23-5.58,10.74-8.83,16.04l-14.91,23.68h-6.57v-47.64H1786.49z
				 M1794.27,421.3c0.28,2.19,0.99,4.38,4.31,4.38c3.25,0,4.03-2.05,4.31-4.38h4.74c-0.35,4.66-3.18,7.56-9.19,7.56
				c-5.8,0-8.55-2.9-8.91-7.56H1794.27z"/>
		</g>
		<g>
			<polygon class="st2" points="581.32,447.49 537.55,522.96 455.12,521.4 497.64,447.56 			"/>
			<polygon class="st2" points="149.79,559.26 104.71,481.26 148.53,413.02 191.39,486.66 			"/>
			<polygon class="st2" points="269.66,128.29 359.75,128.13 397.03,200.15 311.83,200.56 			"/>
			<polygon class="st3" points="21.74,559.1 269.74,128.16 311.82,200.58 105.57,558.98 			"/>
			<polygon class="st3" points="646.84,559.25 149.63,559.26 191.41,486.66 604.92,486.65 			"/>
			<polygon class="st3" points="333.82,16.44 581.4,447.63 497.63,447.54 291.73,88.94 			"/>
			<polygon class="st3" points="335.6,386.61 257.7,422.66 335.56,304.24 413.5,422.61 			"/>
		</g>
	</g>
</g>
<g id="Горизонтальный__x28_второй_вариант_x29_">
	<g>
		<path d="M925.95,88.44L806.49,347.43h61.33l58.13-126.11l58.13,126.11h61.33L925.95,88.44z M926.26,169.12l-74.02,152.07h-7.79
			l81.87-168.12l79.66,168.12h-7.65L926.26,169.12z"/>
		<g>
			<path d="M1078.63,328.73h-4.3V90.54h51.94v127.7l145.89-134.31h4.3v238.19h-51.94V197.4L1078.63,328.73z M1105.09,355.2h-1.98
				l-21.83-22.16l2.32-2.32l23.16,22.83L1105.09,355.2z M1110.39,350.24l-22.83-23.16l2.65-2.32l22.83,23.16L1110.39,350.24z
				 M1117,344.28l-23.16-22.83l2.65-2.32l22.83,22.83L1117,344.28z M1123.29,338.33l-22.83-22.83l2.65-2.32l22.83,22.83
				L1123.29,338.33z M1129.57,332.7l-22.83-22.83l2.65-2.32l22.83,22.83L1129.57,332.7z M1135.86,327.08l-22.83-22.83l2.65-2.32
				l22.83,22.5L1135.86,327.08z M1142.47,321.12l-22.83-22.83l2.65-2.32l22.5,22.83L1142.47,321.12z M1148.76,315.17l-22.83-22.5
				l2.65-2.32l22.83,22.5L1148.76,315.17z M1151.08,122.96l-19.52-19.52v-4.96l19.52,19.52V122.96z M1151.08,135.2l-19.52-19.52
				v-4.96l19.52,19.52V135.2z M1151.08,147.44l-19.52-19.52v-5.29l19.52,19.52V147.44z M1151.08,159.35l-19.52-19.52v-4.96
				l19.52,19.52V159.35z M1151.08,171.59l-19.52-19.52v-4.96l19.52,19.52V171.59z M1151.08,183.83l-19.52-19.52v-4.96l19.52,19.52
				V183.83z M1146.78,192.1l-15.22-15.55v-4.96l17.86,18.19L1146.78,192.1z M1140.82,197.73l-9.26-9.26v-4.96l11.58,11.91
				L1140.82,197.73z M1134.2,203.68l-2.65-2.98v-4.96l5.29,5.62L1134.2,203.68z M1155.05,309.54l-22.83-22.5l2.98-2.65l22.5,22.83
				L1155.05,309.54z M1161.33,303.92l-22.5-22.83l2.65-2.32l22.5,22.5L1161.33,303.92z M1167.62,297.97l-22.5-22.5l2.65-2.32
				l22.5,22.5L1167.62,297.97z M1174.23,292.01l-22.5-22.5l2.65-2.32l22.5,22.5L1174.23,292.01z M1180.52,286.39l-22.5-22.5
				l2.65-2.32l22.5,22.5L1180.52,286.39z M1186.8,280.76l-22.5-22.5l2.65-2.32l22.5,22.16L1186.8,280.76z M1193.09,274.81
				l-22.16-22.5l2.65-2.32l22.16,22.5L1193.09,274.81z M1199.71,268.85l-22.5-22.16l2.65-2.65l22.5,22.5L1199.71,268.85z
				 M1205.99,263.23l-22.16-22.5l2.32-2.32l22.5,22.17L1205.99,263.23z M1212.28,257.28l-22.17-22.16l2.32-2.32l22.5,22.17
				L1212.28,257.28z M1218.56,251.65l-22.17-22.5l2.65-2.32l20.18,20.18v4.3L1218.56,251.65z M1219.22,239.74l-16.54-16.21
				l2.65-2.32l13.89,13.56V239.74z M1219.22,227.5l-9.92-9.92l2.65-2.32l7.28,7.28V227.5z M1219.22,215.59l-3.64-3.64l2.65-2.32
				l0.99,0.66V215.59z M1259.58,348.58h-4.96l-21.5-21.5h4.96L1259.58,348.58z M1271.82,348.58h-4.96l-21.5-21.5h4.96
				L1271.82,348.58z M1284.06,348.58h-4.96l-21.5-21.5h4.96L1284.06,348.58z M1296.31,348.58h-4.96l-21.5-21.5h4.96L1296.31,348.58z
				 M1303.25,117.01l-21.5-21.5v-4.96l21.5,21.5V117.01z M1303.25,129.25l-21.5-21.5v-4.96l21.5,21.5V129.25z M1303.25,141.49
				l-21.5-21.5v-5.29l21.5,21.5V141.49z M1303.25,153.4l-21.5-21.5v-4.96l21.5,21.5V153.4z M1303.25,165.64l-21.5-21.5v-4.96
				l21.5,21.5V165.64z M1303.25,177.88l-21.5-21.5v-4.96l21.5,21.5V177.88z M1303.25,190.12l-21.5-21.5v-4.96l21.5,21.5V190.12z
				 M1303.25,202.03l-21.5-21.5v-4.96l21.5,21.5V202.03z M1303.25,214.27l-21.5-21.5v-4.96l21.5,21.5V214.27z M1303.25,226.51
				l-21.5-21.5v-4.96l21.5,21.5V226.51z M1303.25,238.75l-21.5-21.5v-4.96l21.5,21.5V238.75z M1303.25,250.66l-21.5-21.5v-4.96
				l21.5,21.5V250.66z M1303.25,262.9l-21.5-21.5v-4.96l21.5,21.5V262.9z M1303.25,275.14l-21.5-21.5v-4.96l21.5,21.5V275.14z
				 M1303.25,287.38l-21.5-21.5v-4.96l21.5,21.5V287.38z M1303.25,299.62l-21.5-21.5v-5.29l21.5,21.5V299.62z M1303.25,311.53
				l-21.5-21.5v-4.96l21.5,21.5V311.53z M1303.25,323.77l-21.5-21.5v-4.96l21.5,21.5V323.77z M1303.25,336.01l-21.5-21.5v-4.96
				l21.5,21.5V336.01z M1303.25,348.25l-21.5-21.5v-4.96l21.5,21.5V348.25z"/>
		</g>
		<g>
			<path d="M1362.79,91.17h5.86v256.26h-5.86V91.17z M1375.97,91.17h5.86v256.26h-5.86V91.17z M1389.15,91.17h5.86v256.26h-5.86
				V91.17z M1402.33,91.17h5.86v256.26h-5.86V91.17z M1415.51,91.17h5.86v114.22l91.52-114.22h7.32l-98.84,123.01v2.93
				l103.24,130.33h-7.32l-95.92-121.18v121.18h-5.86V91.17z M1428.32,215.64L1529,91.17h7.69l-100.67,124.47l105.43,131.79h-7.69
				L1428.32,215.64z M1444.06,215.64l100.31-124.47h7.69l-100.31,124.47l105.43,131.79h-7.69L1444.06,215.64z M1459.07,215.64
				l101.41-124.47h7.69l-101.41,124.47l106.9,131.79h-7.69L1459.07,215.64z M1475.18,215.64l101.41-124.47h7.32l-101.04,124.47
				l106.9,131.79h-7.32L1475.18,215.64z"/>
		</g>
		<g>
			<path d="M1725.04,90.95c33.16,0,63.84,11.29,87.47,34.92l-21.16,29.63c-19.4-16.58-43.03-26.45-67.37-26.45
				c-45.15,0-79.71,33.86-83.95,81.83h-42.68C1601.95,140.68,1655.91,90.95,1725.04,90.95z M1597.36,229.56h42.68
				c3.88,48.32,39.5,81.83,84.3,81.83c31.04,0,55.38-16.23,71.95-31.74l20.81,30.69c-23.98,23.63-54.32,39.15-92.41,39.15
				C1655.56,349.49,1601.59,299.4,1597.36,229.56z"/>
		</g>
		<g>
			<polygon class="st2" points="581.32,447.49 537.55,522.96 455.12,521.4 497.64,447.56 			"/>
			<polygon class="st2" points="149.79,559.26 104.71,481.26 148.53,413.02 191.39,486.66 			"/>
			<polygon class="st2" points="269.66,128.29 359.75,128.13 397.03,200.15 311.83,200.56 			"/>
			<polygon class="st3" points="21.74,559.1 269.74,128.16 311.82,200.58 105.57,558.98 			"/>
			<polygon class="st3" points="646.84,559.25 149.63,559.26 191.41,486.66 604.92,486.65 			"/>
			<polygon class="st3" points="333.82,16.44 581.4,447.63 497.63,447.54 291.73,88.94 			"/>
			<polygon class="st3" points="335.6,386.61 257.7,422.66 335.56,304.24 413.5,422.61 			"/>
		</g>
	</g>
	<g id="Клининг" class="st0">
		<text transform="matrix(1 0 0 1 793.1605 519.6172)" class="st1 st4 st5 st6">КЛИНИНГ</text>
	</g>
	<g id="Клининг__x28_кривые_x29_">
		<g>
			<path d="M805.34,403.65h23.41v49.36c5.22-0.53,8.75-1.87,10.6-4.03c1.85-2.16,4.69-8.17,8.54-18.04
				c4.85-12.55,9.73-20.35,14.63-23.41c4.85-3.06,12.68-4.59,23.49-4.59c0.53,0,1.66-0.03,3.4-0.08v17.32l-3.32-0.08
				c-4.8,0-8.31,0.59-10.52,1.78s-4.01,2.99-5.38,5.42c-1.37,2.43-3.4,7.41-6.09,14.95c-1.42,4.01-2.97,7.36-4.63,10.05
				s-4.6,5.22-8.82,7.59c5.22,1.48,9.53,4.46,12.93,8.94c3.4,4.48,7.13,10.81,11.19,18.98l15.82,31.8h-27.53l-13.84-29.98
				c-0.21-0.42-0.66-1.24-1.34-2.45c-0.26-0.42-1.24-2.24-2.93-5.46c-3.01-5.7-5.47-9.25-7.4-10.68c-1.93-1.42-4.86-2.16-8.82-2.21
				v50.78h-23.41V403.65z"/>
			<path d="M953.76,403.65H1035v115.96h-23.41v-96.35H976.7v49.52c0,14.19-0.47,24.09-1.42,29.7s-3.26,9.99-6.92,13.13
				c-3.67,3.14-9.4,4.71-17.2,4.71c-2.74,0-7.73-0.26-14.95-0.79v-18.11l5.22,0.08c4.9,0,8.2-0.66,9.89-1.98
				c1.69-1.32,2.53-4.56,2.53-9.73l-0.08-19.93V403.65z"/>
			<path d="M1101.08,403.65h21.91v77.2l46.99-77.2h23.33v115.96h-21.91v-75.7l-46.91,75.7h-23.41V403.65z"/>
			<path d="M1258.91,519.62V403.65h23.41v45.64h45.88v-45.64h23.41v115.96h-23.41v-50.7h-45.88v50.7H1258.91z"/>
			<path d="M1417.77,403.65h21.91v77.2l46.99-77.2h23.33v115.96h-21.91v-75.7l-46.91,75.7h-23.41V403.65z"/>
			<path d="M1575.61,519.62V403.65h23.41v45.64h45.88v-45.64h23.41v115.96h-23.41v-50.7h-45.88v50.7H1575.61z"/>
			<path d="M1735.34,403.65h78.55v19.46h-55.13v96.5h-23.41V403.65z"/>
		</g>
	</g>
</g>
<g id="Символ" class="st0">
	<g class="st1">
		<path class="st7" d="M1215.49,422.2l-16.03-0.02L990.54,58.33l-64.57,0.32l-8.09-13.87l8.07,13.9L715.97,423.55l32.72,56.21
			l-7.98,13.92l8.01-13.92l417.61-0.01l33.14-57.54L1215.49,422.2z M960.96,332.48l-114.66,53.07L960.9,211.25l114.72,174.24
			L960.96,332.48z"/>
		<polygon class="st2" points="1199.48,422.21 1166.34,479.75 1289.21,479.75 1322.52,422.31 1215.49,422.2 		"/>
		<polygon class="st2" points="748.69,479.76 715.97,423.55 654.72,529.99 687.34,586.42 740.71,493.68 		"/>
		<polygon class="st2" points="925.97,58.64 990.54,58.33 929.57,-47.86 864.13,-47.74 917.88,44.78 		"/>
		<polygon class="st3" points="925.95,58.67 917.88,44.78 864.13,-47.74 864.01,-47.94 863.89,-47.74 498.97,586.39 622.36,586.22 
			654.72,529.99 715.97,423.55 		"/>
		<polygon class="st3" points="1357.38,479.74 1289.21,479.75 1166.34,479.75 748.73,479.76 740.71,493.68 687.34,586.42 
			687.22,586.63 687.45,586.63 1419.08,586.6 		"/>
		<polygon class="st3" points="1199.46,422.18 1215.49,422.2 1322.52,422.31 1322.76,422.31 958.33,-212.37 896.38,-105.66 
			929.57,-47.86 990.54,58.33 		"/>
		<polygon class="st3" points="846.29,385.56 960.96,332.48 1075.62,385.48 960.9,211.25 		"/>
	</g>
</g>
<g id="Горизонтальный_без_дескриптор" class="st0">
	<path class="st1" d="M818.8,115.1L655.76,468.58h83.71l79.34-172.12l79.34,172.12h83.71L818.8,115.1z M819.22,225.22L718.2,432.77
		h-10.63l111.74-229.45l108.72,229.45H917.6L819.22,225.22z"/>
	<g class="st1">
		<path d="M1027.17,443.06h-5.87V117.97h70.89v174.28l199.11-183.31h5.87v325.08h-70.89V263.81L1027.17,443.06z M1063.29,479.18
			h-2.71l-29.8-30.25l3.16-3.16l31.6,31.15L1063.29,479.18z M1070.52,472.4l-31.15-31.61l3.61-3.16l31.15,31.61L1070.52,472.4z
			 M1079.55,464.28l-31.61-31.15l3.61-3.16l31.15,31.15L1079.55,464.28z M1088.12,456.15L1056.97,425l3.61-3.16l31.15,31.15
			L1088.12,456.15z M1096.7,448.47l-31.15-31.15l3.61-3.16l31.15,31.15L1096.7,448.47z M1105.28,440.8l-31.15-31.15l3.61-3.16
			l31.15,30.7L1105.28,440.8z M1114.31,432.67l-31.15-31.15l3.61-3.16l30.7,31.15L1114.31,432.67z M1122.89,424.54l-31.15-30.7
			l3.61-3.16l31.15,30.7L1122.89,424.54z M1126.05,162.22l-26.64-26.64v-6.77l26.64,26.64V162.22z M1126.05,178.93l-26.64-26.64
			v-6.77l26.64,26.64V178.93z M1126.05,195.63l-26.64-26.64v-7.22l26.64,26.64V195.63z M1126.05,211.89l-26.64-26.64v-6.77
			l26.64,26.64V211.89z M1126.05,228.59l-26.64-26.64v-6.77l26.64,26.64V228.59z M1126.05,245.3l-26.64-26.64v-6.77l26.64,26.64
			V245.3z M1120.18,256.58l-20.77-21.22v-6.77l24.38,24.83L1120.18,256.58z M1112.05,264.26l-12.64-12.64v-6.77l15.8,16.25
			L1112.05,264.26z M1103.02,272.39l-3.61-4.06v-6.77l7.22,7.68L1103.02,272.39z M1131.47,416.87l-31.15-30.7l4.06-3.61l30.7,31.15
			L1131.47,416.87z M1140.05,409.19l-30.7-31.15l3.61-3.16l30.7,30.7L1140.05,409.19z M1148.63,401.07l-30.7-30.7l3.61-3.16
			l30.7,30.7L1148.63,401.07z M1157.66,392.94l-30.7-30.7l3.61-3.16l30.7,30.7L1157.66,392.94z M1166.23,385.26l-30.7-30.7
			l3.61-3.16l30.7,30.7L1166.23,385.26z M1174.81,377.59l-30.7-30.7l3.61-3.16l30.7,30.25L1174.81,377.59z M1183.39,369.46
			l-30.25-30.7l3.61-3.16l30.25,30.7L1183.39,369.46z M1192.42,361.33l-30.7-30.25l3.61-3.61l30.7,30.7L1192.42,361.33z
			 M1201,353.66l-30.25-30.7l3.16-3.16l30.7,30.25L1201,353.66z M1209.58,345.53l-30.25-30.25l3.16-3.16l30.7,30.25L1209.58,345.53z
			 M1218.16,337.85l-30.25-30.7l3.61-3.16l27.54,27.54v5.87L1218.16,337.85z M1219.06,321.6l-22.57-22.12l3.61-3.16l18.96,18.51
			V321.6z M1219.06,304.9l-13.54-13.55l3.61-3.16l9.93,9.93V304.9z M1219.06,288.64l-4.97-4.97l3.61-3.16l1.35,0.9V288.64z
			 M1274.14,470.15h-6.77l-29.35-29.35h6.77L1274.14,470.15z M1290.85,470.15h-6.77l-29.35-29.35h6.77L1290.85,470.15z
			 M1307.55,470.15h-6.77l-29.35-29.35h6.77L1307.55,470.15z M1324.26,470.15h-6.77l-29.35-29.35h6.77L1324.26,470.15z
			 M1333.74,154.09l-29.35-29.35v-6.77l29.35,29.35V154.09z M1333.74,170.8l-29.35-29.35v-6.77l29.35,29.35V170.8z M1333.74,187.5
			l-29.35-29.35v-7.22l29.35,29.35V187.5z M1333.74,203.76l-29.35-29.35v-6.77l29.35,29.35V203.76z M1333.74,220.46l-29.35-29.35
			v-6.77l29.35,29.35V220.46z M1333.74,237.17l-29.35-29.35v-6.77l29.35,29.35V237.17z M1333.74,253.88l-29.35-29.35v-6.77
			l29.35,29.35V253.88z M1333.74,270.13l-29.35-29.35v-6.77l29.35,29.35V270.13z M1333.74,286.84l-29.35-29.35v-6.77l29.35,29.35
			V286.84z M1333.74,303.54l-29.35-29.35v-6.77l29.35,29.35V303.54z M1333.74,320.25l-29.35-29.35v-6.77l29.35,29.35V320.25z
			 M1333.74,336.5l-29.35-29.35v-6.77l29.35,29.35V336.5z M1333.74,353.21l-29.35-29.35v-6.77l29.35,29.35V353.21z M1333.74,369.91
			l-29.35-29.35v-6.77l29.35,29.35V369.91z M1333.74,386.62l-29.35-29.35v-6.77l29.35,29.35V386.62z M1333.74,403.32l-29.35-29.35
			v-7.22l29.35,29.35V403.32z M1333.74,419.58l-29.35-29.35v-6.77l29.35,29.35V419.58z M1333.74,436.28l-29.35-29.35v-6.77
			l29.35,29.35V436.28z M1333.74,452.99l-29.35-29.35v-6.77l29.35,29.35V452.99z M1333.74,469.69l-29.35-29.35v-6.77l29.35,29.35
			V469.69z"/>
	</g>
	<g class="st1">
		<path d="M1415,118.83h7.99v349.75H1415V118.83z M1432.99,118.83h7.99v349.75h-7.99V118.83z M1450.98,118.83h7.99v349.75h-7.99
			V118.83z M1468.96,118.83h7.99v349.75h-7.99V118.83z M1486.95,118.83h7.99v155.89l124.91-155.89h9.99l-134.9,167.88v4
			l140.9,177.87h-9.99L1494.94,303.2v165.38h-7.99V118.83z M1504.44,288.71l137.4-169.88h10.49l-137.4,169.88l143.9,179.87h-10.49
			L1504.44,288.71z M1525.92,288.71l136.9-169.88h10.49l-136.9,169.88l143.9,179.87h-10.49L1525.92,288.71z M1546.41,288.71
			l138.4-169.88h10.49l-138.4,169.88l145.89,179.87h-10.49L1546.41,288.71z M1568.39,288.71l138.4-169.88h9.99l-137.9,169.88
			l145.89,179.87h-9.99L1568.39,288.71z"/>
	</g>
	<g class="st1">
		<path d="M1909.41,118.52c45.25,0,87.13,15.4,119.39,47.66l-28.88,40.44c-26.48-22.63-58.73-36.1-91.95-36.1
			c-61.62,0-108.79,46.21-114.57,111.68h-58.25C1741.41,186.4,1815.06,118.52,1909.41,118.52z M1735.15,307.71h58.25
			c5.29,65.95,53.92,111.68,115.05,111.68c42.36,0,75.58-22.14,98.2-43.33l28.4,41.88c-32.73,32.25-74.13,53.43-126.12,53.43
			C1814.58,471.38,1740.92,403.02,1735.15,307.71z"/>
	</g>
	<g class="st1">
		<polygon class="st2" points="442.58,452.51 398.82,527.97 316.39,526.42 358.91,452.58 		"/>
		<polygon class="st2" points="11.05,564.28 -34.03,486.28 9.79,418.04 52.66,491.68 		"/>
		<polygon class="st2" points="130.92,133.31 221.01,133.14 258.3,205.16 173.09,205.58 		"/>
		<polygon class="st3" points="-117,564.12 131,133.17 173.08,205.6 -33.17,564 		"/>
		<polygon class="st3" points="508.11,564.26 10.9,564.28 52.68,491.68 466.19,491.67 		"/>
		<polygon class="st3" points="195.08,21.46 442.66,452.65 358.9,452.56 153,93.96 		"/>
		<polygon class="st3" points="196.86,391.62 118.96,427.68 196.83,309.26 274.77,427.63 		"/>
	</g>
</g>
</svg>
